<svg id="Layer_1" xmlns="http://www.w3.org/2000/svg" xmlns:xlink="http://www.w3.org/1999/xlink" viewBox="0 0 840 308"><defs><style>.cls-1{fill:#f29a1f;}.cls-2{fill:url(#linear-gradient);}</style><linearGradient id="linear-gradient" x1="46.19" y1="231.94" x2="237.98" y2="59.25" gradientUnits="userSpaceOnUse"><stop offset="0" stop-color="#e05074"/><stop offset="0.3" stop-color="#ef8342"/><stop offset="0.66" stop-color="#f9ac1b"/><stop offset="1" stop-color="#fbc665"/></linearGradient></defs><path class="cls-1" d="M366,187.49a36.29,36.29,0,0,1-17.85-4.2,28.83,28.83,0,0,1-11.72-11.92,37.92,37.92,0,0,1-4.13-18.12,36.74,36.74,0,0,1,4.13-17.91,28.33,28.33,0,0,1,11.72-11.59A37.27,37.27,0,0,1,366,119.69a42,42,0,0,1,9.53,1.19,32.24,32.24,0,0,1,9.66,4,6.08,6.08,0,0,1,3.12,4.13,6.93,6.93,0,0,1-.66,4.66,6.53,6.53,0,0,1-3.33,3.06c-1.47.63-3.13.4-5-.66a24.05,24.05,0,0,0-11.85-3.46q-8.67,0-13.39,5.39t-4.73,15.39q0,9.86,4.73,15.52t13.39,5.66a24.79,24.79,0,0,0,11.85-3.33q2.81-1.61,4.93-.67a5.74,5.74,0,0,1,3.07,3.13,7.62,7.62,0,0,1,.4,4.66,6.39,6.39,0,0,1-3.07,4.07,32.83,32.83,0,0,1-9.32,3.86A39.55,39.55,0,0,1,366,187.49Z"/><path class="cls-1" d="M427.16,187.49a35.68,35.68,0,0,1-17.59-4.13A28.75,28.75,0,0,1,398,171.57a37.53,37.53,0,0,1-4.13-18,37.1,37.1,0,0,1,4.13-18,28.9,28.9,0,0,1,11.59-11.73,39.59,39.59,0,0,1,35.17,0,29,29,0,0,1,11.59,11.73,37.1,37.1,0,0,1,4.13,18,37.53,37.53,0,0,1-4.13,18,28.81,28.81,0,0,1-11.59,11.79A35.7,35.7,0,0,1,427.16,187.49Zm0-12.65a14.88,14.88,0,0,0,12-5.4q4.52-5.4,4.52-15.92t-4.52-15.92a16.3,16.3,0,0,0-24,0q-4.55,5.27-4.53,15.92t4.53,15.92A14.85,14.85,0,0,0,427.16,174.84Z"/><path class="cls-1" d="M496.42,187.49q-22.25,0-22.24-24.91v-63q0-8.4,8.26-8.39t8.39,8.39v62.21q0,12,10,12c.71,0,1.38,0,2-.07s1.24-.11,1.86-.2a2.2,2.2,0,0,1,2.53,1c.45.85.67,2.56.67,5.13a8.85,8.85,0,0,1-1.33,5.19,6,6,0,0,1-4.4,2.27A39.85,39.85,0,0,1,496.42,187.49Z"/><path class="cls-1" d="M525.2,187.22q-8.26,0-8.26-8.52V128.34q0-8.39,8.13-8.39t8.12,8.39V131a21.21,21.21,0,0,1,8.13-8.33,23.53,23.53,0,0,1,12-3q14.66,0,19.18,12.78a22.69,22.69,0,0,1,8.79-9.39,25.15,25.15,0,0,1,13.06-3.39q22,0,22,26.77V178.7q0,8.52-8.4,8.52-8.25,0-8.26-8.52V147.13q0-7.47-2.46-10.93c-1.64-2.3-4.42-3.46-8.32-3.46a12.46,12.46,0,0,0-10.26,4.6q-3.74,4.59-3.73,12.72V178.7q0,8.52-8.26,8.52t-8.4-8.52V147.13q0-7.47-2.46-10.93c-1.64-2.3-4.37-3.46-8.19-3.46a12.49,12.49,0,0,0-10.26,4.6q-3.74,4.59-3.73,12.72V178.7Q533.59,187.22,525.2,187.22Z"/><path class="cls-1" d="M665.61,187.49q-11.07,0-19.05-4.13a29.38,29.38,0,0,1-12.33-11.72,35.81,35.81,0,0,1-4.32-18,36,36,0,0,1,4.19-17.71A30.91,30.91,0,0,1,645.69,124a32.76,32.76,0,0,1,16.85-4.32q13.86,0,21.92,8.79t8.06,24q0,4.94-6.4,4.93H645.89q1.86,17.46,20,17.46a40,40,0,0,0,7.8-.87,28.6,28.6,0,0,0,8.19-3q3.46-2,5.86-1.26a5.27,5.27,0,0,1,3.4,2.86,6.63,6.63,0,0,1,.26,4.73,7.86,7.86,0,0,1-3.79,4.46,34.46,34.46,0,0,1-10.73,4.33A50.38,50.38,0,0,1,665.61,187.49ZM663.21,131q-7.34,0-11.86,4.53t-5.46,12.25h32.77q-.52-8.11-4.46-12.45T663.21,131Z"/><path class="cls-1" d="M714,187.22q-8.26,0-8.26-8.52V128.34q0-8.39,8.13-8.39t8.12,8.39v2.8a22.18,22.18,0,0,1,9-8.53,27.27,27.27,0,0,1,12.72-2.92q23,0,23,26.77V178.7q0,8.52-8.26,8.52t-8.39-8.52V147.26q0-7.59-2.86-11.06t-8.86-3.46q-7.33,0-11.66,4.6t-4.33,12.19V178.7Q722.35,187.22,714,187.22Z"/><path class="cls-1" d="M805.08,187.49a28.07,28.07,0,0,1-12.59-2.73,21.83,21.83,0,0,1-8.66-7.39,18.44,18.44,0,0,1-3.13-10.53q0-7.18,3.73-11.39t12.12-6.06q8.4-1.86,22.52-1.86h4.66v-2.8q0-6.66-2.93-9.59t-9.86-2.94a41,41,0,0,0-8.33.94,44.43,44.43,0,0,0-9.39,3.2q-3.19,1.46-5.32.33a5.69,5.69,0,0,1-2.87-3.6,7.42,7.42,0,0,1,.27-5,6.63,6.63,0,0,1,4.06-3.73,59.7,59.7,0,0,1,11.79-3.6,56.12,56.12,0,0,1,10.32-1.06q14.26,0,21.18,6.59t6.93,20.45v32q0,8.52-7.73,8.52T824,178.7v-2.93a18.2,18.2,0,0,1-7.2,8.59A21.46,21.46,0,0,1,805.08,187.49ZM808.54,176a14.37,14.37,0,0,0,10.86-4.53,15.91,15.91,0,0,0,4.33-11.45v-2.93H819.2q-12.53,0-17.38,1.93a7,7,0,0,0-4.87,7,9.27,9.27,0,0,0,3.07,7.19Q803.08,176,808.54,176Z"/><path class="cls-2" d="M181,293.15a14.12,14.12,0,0,1-14.11,14.12H151.83a14.12,14.12,0,1,1,0-28.23h15.06A14.11,14.11,0,0,1,181,293.15ZM62.49,154a14.11,14.11,0,0,0-14.1-14.12H14.52a14.12,14.12,0,0,0,0,28.23H48.39A14.11,14.11,0,0,0,62.49,154Zm206.39-14.12H248.67l0,0h-5.2a8.14,8.14,0,0,1-.87-.05v.07H215.09a9.08,9.08,0,0,1-.09-18.16h27.62v.07a6.17,6.17,0,0,1,.87,0h5.2l0,0H251a14.12,14.12,0,1,0,0-28.23H119.79A9.08,9.08,0,0,1,120,75.34h95.91a14.12,14.12,0,0,0,0-28.23H152.63A9.08,9.08,0,0,1,152.06,29H179A14.12,14.12,0,1,0,179,.73H98.63a14.12,14.12,0,1,0,0,28.23h8.2a9.08,9.08,0,0,1-.57,18.14H62.08a14.12,14.12,0,1,0,0,28.23H73.64a9.08,9.08,0,0,1,.24,18.16H35.33a14.12,14.12,0,1,0,0,28.23h133.6a9.08,9.08,0,0,1-.09,18.16H89.15a14.12,14.12,0,1,0,0,28.23h47a9.08,9.08,0,0,1,.66,18.14H43.51a14.12,14.12,0,0,0,0,28.23H84.56v0h6.8l0,0a9.08,9.08,0,0,1,.34,18.15H78.52a14.12,14.12,0,0,0,0,28.23H200.7a14.12,14.12,0,0,0,0-28.23H137.37a9.08,9.08,0,0,1,.34-18.15l-.05,0H154v0H228.6a14.12,14.12,0,1,0,0-28.23H181.89a9.08,9.08,0,0,1,.67-18.14l-.09,0H207v0h61.93a14.12,14.12,0,0,0,0-28.23Z"/></svg>