<svg width="56" height="56" viewBox="0 0 56 56" fill="none" xmlns="http://www.w3.org/2000/svg">
<g clip-path="url(#clip0_2935:23014)">
<path d="M56.0005 28.1718C56.0005 12.6108 43.4635 -0.00317383 28.0005 -0.00317383C12.5305 0.000326172 -0.00653076 12.6108 -0.00653076 28.1753C-0.00653076 42.2348 10.2345 53.8898 23.6185 56.0038V36.3163H16.5135V28.1753H23.6255V21.9628C23.6255 14.9033 27.808 11.0043 34.2025 11.0043C37.2685 11.0043 40.471 11.5538 40.471 11.5538V18.4838H36.9395C33.464 18.4838 32.379 20.6573 32.379 22.8868V28.1718H40.142L38.903 36.3128H32.3755V56.0003C45.7595 53.8863 56.0005 42.2313 56.0005 28.1718Z" fill="black"/>
</g>
<defs>
<clipPath id="clip0_2935:23014">
<rect width="56" height="56" fill="white"/>
</clipPath>
</defs>
</svg>
